<?xml version="1.0" encoding="UTF-8"?>
<svg id="Livello_2" xmlns="http://www.w3.org/2000/svg" version="1.1" viewBox="0 0 196.6 306.5">
  <!-- Generator: Adobe Illustrator 30.2.1, SVG Export Plug-In . SVG Version: 2.1.1 Build 1)  -->
  <defs>
    <style>
      .st0 {
        fill: #ffe736;
        isolation: isolate;
      }
    </style>
  </defs>
  <circle class="st0" cx="140.6" cy="159.5" r="8.5"/>
  <circle class="st0" cx="44.3" cy="51.9" r="8.5"/>
  <circle class="st0" cx="57.3" cy="113.3" r="8.5"/>
  <circle class="st0" cx="65.8" cy="68.9" r="8.5"/>
  <circle class="st0" cx="106.5" cy="45.8" r="8.5"/>
  <circle class="st0" cx="108.5" cy="121.8" r="8.5"/>
  <circle class="st0" cx="135.1" cy="83.2" r="8.5"/>
  <circle class="st0" cx="165.6" cy="38.7" r="8.5"/>
  <circle class="st0" cx="159.9" cy="104.8" r="8.5"/>
  <circle class="st0" cx="146.2" cy="104.8" r="8.5"/>
  <circle class="st0" cx="108.5" cy="172.2" r="8.5"/>
  <circle class="st0" cx="98.3" cy="168" r="8.5"/>
  <circle class="st0" cx="149.6" cy="170.9" r="8.5"/>
  <circle class="st0" cx="115.3" cy="130.3" r="8.5"/>
  <circle class="st0" cx="157.1" cy="185" r="8.5"/>
  <circle class="st0" cx="116.9" cy="100.9" r="8.5"/>
  <circle class="st0" cx="141.1" cy="180.8" r="8.5"/>
  <circle class="st0" cx="74.3" cy="87.8" r="8.5"/>
  <circle class="st0" cx="57.3" cy="38.7" r="8.5"/>
  <circle class="st0" cx="154.7" cy="68.9" r="8.5"/>
</svg>