<?xml version="1.0" encoding="UTF-8"?>
<svg id="Livello_2" xmlns="http://www.w3.org/2000/svg" version="1.1" viewBox="0 0 196.6 306.5">
  <!-- Generator: Adobe Illustrator 30.2.1, SVG Export Plug-In . SVG Version: 2.1.1 Build 1)  -->
  <defs>
    <style>
      .st0 {
        fill: #fff;
        stroke: #471e02;
        stroke-linecap: round;
        stroke-linejoin: round;
        stroke-width: .8px;
      }

      .st1 {
        display: none;
        fill: #ffe736;
        isolation: isolate;
        opacity: 1;
      }
    </style>
  </defs>
  <circle class="st1" cx="140.6" cy="159.5" r="8.5"/>
  <circle class="st1" cx="44.3" cy="51.9" r="8.5"/>
  <circle class="st1" cx="57.3" cy="113.3" r="8.5"/>
  <circle class="st1" cx="65.8" cy="68.9" r="8.5"/>
  <circle class="st1" cx="106.5" cy="45.8" r="8.5"/>
  <circle class="st1" cx="108.5" cy="121.8" r="8.5"/>
  <circle class="st1" cx="135.1" cy="83.2" r="8.5"/>
  <circle class="st1" cx="165.6" cy="38.7" r="8.5"/>
  <circle class="st1" cx="159.9" cy="104.8" r="8.5"/>
  <circle class="st1" cx="146.2" cy="104.8" r="8.5"/>
  <circle class="st1" cx="108.5" cy="172.2" r="8.5"/>
  <circle class="st1" cx="98.3" cy="168" r="8.5"/>
  <circle class="st1" cx="149.6" cy="170.9" r="8.5"/>
  <path class="st0" d="M121.8,286.3c-1.1,1.3-1.6,2.8-1.1,3.8.7,1.3,3.4,1.9,5.9.1,3.7,0-5.7,4.6-6.5,6.8-1.9,2.4-2,6.1-4.2,8.2-5.6,3.3-8.5-3.8-8.1-8.5-1.9-28.6,5-22.2-20.9-34.5-2.3-1.1-5.4-2.8-3.3-2.7,3.8.1,15.1,6,18.9,6.3,3-.1-13.9-17-14.9-18.8-9.8-11,10.5,7.4,12.1,9.3,1.8,1.7,5.7,4.9,6.6.7,1.6-14.6,3.6-39.7,8-41.3,1.1-.3,2.3-.8,1.1-2.2-2.2-2.4-6.5-2-8.5-4.8-1.3-1.6-1.7-4.7-.8-6.4.3-.2.7-.1,1,0,.7.4,1.4.4,2.2.1,1.2-.9,3,.1,4-.8,1.1-7.1-9-4.5-12.1-1.4-1.2.9-1.5,1-1.4.1,1-8.1-4-10.4,7.3-10.9,4-.2,6.5-1.9,6.1-6.1,0-4.6-.5-9.6-.9-14.2-1.3-13.5-1.6-19.5-14.9-25.4-4.7-2.4-9.5-4.8-13.7-8-3.1-2.3-7.6-7,0-2.6,3,1.5,25,14.1,16.4,3.4-5.3-5.7-9.5-15.5-18.3-15.3-5.1.3-10.1,3.5-14.4,5.8-1.6.8-2.6,1.2-2.9.9,0-1.6,4.8-5.3,7-6.3,1.6-1.2,8.7-3.1,6.5-5-8.9-5.6-20.1-3.8-29,.7-8.2,3.2.7-2.6,3.3-3.8,4.3-2.3,6.8-3.6.9-5-12.1-3.2-40.5-10.3-52.5-13.7-.4-.2-.1-.3,1-.2,11.3.9,22.5,4.6,33.6,7,1.5,0,12.9,3.2,12.3,1.3-.7-.8-3.6-1.5-3.1-2.8.6-.8,2.5-1.7,4-1.9,3.5,0,4.6,4.3,7.3,5.9,4.6,3.6,15.2,5.8,7.1-2.2-3.9-4.5-10-8.5-12.3-13.9,7.2,4.4,16.1,15.2,23,20.2,10.4,6.4,3.3-6,.6-9.6-5.6-8.1-9.9-17.6-17.4-24.1-1.3-1.5-12-7.4-9.5-7.4,7.4,3.1,8.9,1.3,3-4.6-9.7-7.8-20.8-14.3-30.6-22-1.4-1.2-3.8-2.7-4.3-4.2,2,0,4.5,2,6.4,2.9,7.8,4.6,17,10.7,24.5,15.2,1.3.8,1.7.5,1.1-.9-4.7-9.4-18.5-38.4-23.5-49.1-7.8-19.4,21.6,38.3,21.6,37.6.4.7,1.5,2.6,1.8,2.3.2-1-.6-3.5.8-4,2-.2,5.2.6,6.9,2,.7,1.8-2.1,4.8-1.8,6.7,1.1,1,2.9-1.4,4.3-1.2,3.7.8-.5,7.3-.2,10-.2,3.8,2,8.1,4.6,12,3.8,6.8,13.1,12.8,13.9,1.5.3-4.8-1.7-9.1-3.7-14-2.6-6.7-6.1-15-8.4-21.4,1.3,1.4,4.1,7.4,6.1,10.6,1.4,1.7,6.8,14.3,8.3,12.8,2.8-8,5.1-21.9,7-28.6,0-.4.2-.6.2-.8,0-.1,0,0,0,.2-.5,4.9-3,23.9-4.1,32.5-.4,2.9-.3,4.9,2.8,2.9,3.9-2.5,9.6-5.1,11.8-8.6.8-1.9-1.7-3.1-2.6-4.2-1.3-1.6.6-1.2,2.1-.9,2.1.3,4.8,1.9,6.8,1.3,1.4-2.3-3.1-7.5-4.3-10.4-1.7-2.4-7.2-12.1-1.9-5.9,2.3,1.8,7,12.7,10.5,8.9,2.8-4.9-.3-13.1,1.2-18.7.2-2.9,7.4-30.7,8.4-23.9.5,3.5-7.5,29.5-2.8,28.9,2.5-1.7,3.7-4.5,2.6,0-.5,3-3.8,8.5.3,10,.4.3.2.8,0,1.3-2.5,4.3-5.6,11-4.7,16.8.3,2.4,0,6.8,2.8,7.2,1.6,1.1,17.2-15.3,14.7-9.2-.3,1.9-15.2,16.2-7.2,13.6,2.8-.8,6.6-2.9,9.6-2.5,1.1,1.3-12.1,6.5-13.7,9.6-2.5,2.7-3.2,6.1-3.2,9.8,0,2.5,0,7.8,2.7,8.2,3-1,6.1-9.7,9-12.5,1.7-1.7,1.5,2.1,3.5.4,5.6-5.7,14.3-14.2,13.1-23.3-.9-5.6-2.7-11.1-4.7-16.4-2-5.8-6.6-10-9.6-15-.1-.3,0-.4.3-.3,1.7.7,3.9,3.6,5.9,4,1-.8.2-2.5.1-3.7-.8-4.4-2.1-9.9-2.8-14-.1-.3-.1-.6-.1-.7s0-.2.1,0c1.3,3.1,2.4,7.3,4,12,1.9,5.2,2.7,9.2,7.4,3.4.4-.2.4.2.2,1.2-.5,2.5-1.5,5.2-1.8,7.8-.8,2.5,3,18.5,6,19.2,3.4-.8,5.8-5,7.7-7.8,2.9-5.2,1.8-12.6,2.5-18.5.2-2.4.6-4.5,1.1-.5.6,1.5-.1,11.3,2.3,10.5,6.3-7.8,14.7-23.1,20.5-31.6,9.2-13.1,0,7.1-2.2,10.2-2.8,5.3-4.6,8.7-7.3,13.3-3.7,6.1-4.7,9.7,4.4,7,4.1-.8,9.3-2.8,13.1-1.7h0c-1,1.9-5.8,2.2-8.2,3.1-5.5,1.5-11.4,2.4-16.4,5-6.3,5.1-11.4,14.4-16.9,20.8-4.8,6.9-12,14.8-15.7,21.5-.2,1.2.9,1.6,1.9,1.1,2.3-.8,4.2-5.1,6.5-2.8,2.9,3.8,7.4,4.9,12.1,4.4,3.9-.3,8.5.9,11.8-1.7.8-.8,1.4-2.1,1.5-3,.2-1.8.6-2.2,2.1-1.7,1.6.6,3.7,1.7,3.7,3.5.1.7-.1,1.5.3,2.1,2.9,2.1,9.9,1.1,14.1,1.8,2.7.2,8.1.6,9.2,1.8-2.2.9-4.7.6-8.6.8-3.3.5-11.6-.7-13.3,1.7-.1,1.3,1.4,2.9,1.8,4,.3,1.8-7.9-3.4-9.3-3.4-4.3-1.5-7.8-.2-11.3,1.9-1.2.8-3.5,1.4-3.5,2.8.7,4.3,4.7,8.2,6.7,11.9,2.1,3.2.2,1-1.4-.8-9.4-9.7-12.1-19.8-27.6-17.1-8.2,1.5,5.6,2,2.1,7.9-.7,1.4-2.2,2.6-2.1,4.2.8,3.8,8.5,5.4,9.8,8.8-3.9,1.5-12.4-4-18,0-3.8,2.4-2.9,4.1-2.7,7.8-2.4,8.7,0,17.5.7,26.3.2,8.5,1.8,15.8,9.1,20.6,2,1.4,2.4,1.6,2.2-1.1,0-.8.9-1.9,1.2-3.3.7-2.2.4-5.1,1.8-7,1.1-.9,2.5-1.5,3.8-1.9,1.7.1,3.7.6,5.1,1.6,1.4,1.4,2.6,2.4,2.8,4.8,0,2.8.4,9.8,4.1,4.5,2.8-2.6,3.3-12.7,6.5-12.7,7.2,1.9,13.6-1.4,6.4,8.9-2.9,4-3.2,5.9,2.3,5.9,6.6.5,18.1.2,22.7,1-5.6.7-15.1,1.3-22.7,2.1-4.3.3-6.5.9-7.3,5.1-1.1,1.3-3.3-.1-4.9.3-6.9,1.4-11.4,9.8-16.3,14.1-2.2,2.2-5.5,2.4-8.2,3.6-1.7,1-4.6,2.6-1.3,2.7.7-.1,1.4-.2,2,.2,1.9,1.3,4.2,1.2,6.5,1.5,1.1,0,3.4-.4,4,.5.3,1.1-.7,2.9-1.4,3.6-1,.8-2.3.4-3.6.5-3.2-.5-7.1,1.6-9.8,3.5-4.8,2.8-3.3,9.6-4.9,14.4-2,12.3-3.8,24.5-3.6,37.1,11.4-29,14-35.9,13.8-35.9-.2-.1-1.5,19.8-10.2,35.8-4.6,8.4,4.7,19.3,2.3,23.4h0ZM104.3,58.3c-2.8-3.1-6.7-1.2-9.2,1.3-3,2.8-7.3,6.8-10.1,9.4-4.3,3.6-4.4,6.2-4.9,11.6-.2,3-1,6.3-.6,9.3.6,1.9,3.1-.6,6.3-3,2.5-1.9,5.4-3.9,8.1-5.2,6-2.9-1.1,2.8-2.2,3.8-2.4,2-4.5,4.2-6.6,6.6-2.1,2.5-3.8,5.7-2.9,9.1.3,1.3.9,2.7,1.6,3.9,3.6,6.2,7.5,12.2,11.8,17.9,1.1,1.3,2.5,3.3,4,3.7,2.3.4,2.1-5.3,3.7-5.8,1,0,1.9,3.9,3.2,2.5,2-3.3,2-8.8,1.8-12.8-.8-15-.2-30.3-1.4-45.2-.1-2.6-.8-5.3-2.6-7.1h0ZM122.4,188.8c2.2,1.1,6,.9,8.4-.1,4.4-1.8.6-7.3-2-10.1-1.8-2.1-3.5-3.9-5.3-5.4-2.3-2-3.2-.8-3,2.4,0,1.1,0,2.4.2,3.8,0,1.7.2,3.5.3,4.9,0,2.2.3,3.7,1.4,4.5h0Z"/>
  <circle class="st1" cx="115.3" cy="130.3" r="8.5"/>
  <circle class="st1" cx="157.1" cy="185" r="8.5"/>
  <circle class="st1" cx="116.9" cy="100.9" r="8.5"/>
  <circle class="st1" cx="141.1" cy="180.8" r="8.5"/>
  <circle class="st1" cx="74.3" cy="87.8" r="8.5"/>
  <circle class="st1" cx="57.3" cy="38.7" r="8.5"/>
  <circle class="st1" cx="154.7" cy="68.9" r="8.5"/>
</svg>